<svg xmlns="http://www.w3.org/2000/svg" viewBox="0 0 1024 1024"><path fill="#252525" d="M519.744 259.514 236.777 426.48l-132.9 494.956 497.845-130.13 162.656-287.157zM168.36 806.776l171.141-171.141 2.751 28.43-176.127 176.128zm412.246-42.928-352.801 92.217-1.759-20.538 36.094 3.567-4.74-33.07 34.516 3.412-5.087-35.495 9.634-9.633 38.81-1.553 70.21-70.21c29.349 5.585 60.858-2.967 83.576-25.684 36.468-36.468 36.468-95.595 0-132.063s-95.595-36.468-132.063 0c-23.322 23.323-31.653 55.899-25.144 85.903L175.746 776.806l88.466-329.47 250.454-147.78 209.987 209.988zM428.332 559.644c10.35-10.351 27.133-10.351 37.484 0s10.352 27.133 0 37.485c-10.35 10.35-27.133 10.35-37.484 0-10.351-10.351-10.351-27.134 0-37.485"/><path fill="#ee7a02" stroke="#252525" stroke-miterlimit="10" stroke-width="31.905" d="m650.55 77.507 297.524 297.524c21.182 21.181 14.046 57.089-13.626 68.561l-131.356 54.46a42.04 42.04 0 0 1-45.828-9.107L536.636 268.317a42.04 42.04 0 0 1-9.108-45.827L581.99 91.133c11.473-27.671 47.38-34.807 68.561-13.626Z"/></svg>