<?xml version="1.0" encoding="UTF-8"?>
<svg xmlns="http://www.w3.org/2000/svg"  version="1.1" viewBox="0 0 1024 1024">
  <g id="BG" display="none">
    <rect y="0" width="1024" height="1024" fill="#fff"/>
  </g>
  <g id="Key">
    <path d="M519.7441406,259.5141602l-282.9667969,166.9643555-132.9003906,494.9560547,497.8447266-130.1298828,162.65625-287.1567383-244.6337891-244.6337891ZM168.3600464,806.7762451l171.1412354-171.1412354,2.7511597,28.4300537-176.1278687,176.1279297,2.2354736-33.416748ZM580.6064453,763.8476562l-352.8017578,92.2177124-1.7584839-20.5379028,36.0935059,3.5668335-4.7392578-33.0696411,34.5152588,3.4110107-5.086792-35.4945068,9.633606-9.6335449,38.8096313-1.5522461,70.2111816-70.2111816c29.3486328,5.5863037,60.8575439-2.9656982,83.5753174-25.6834717,36.4680786-36.4680786,36.4678955-95.5942993-.0001831-132.0623779-36.4679565-36.4678955-95.5941162-36.4680786-132.0621948,0-23.3225708,23.3225098-31.6534424,55.8983765-25.1445312,85.9022217l-156.105835,156.105835,88.4660034-329.4709473,250.4541016-147.7802734,209.9873047,209.9887695-144.046875,254.3037109ZM428.331604,559.6439209c10.3513184-10.3512573,27.133728-10.3510742,37.4848633,0,10.3510742,10.3511353,10.3512573,27.1335449,0,37.4848633-10.3511353,10.3510742-27.133728,10.3510742-37.4848633,0-10.3510742-10.3511353-10.3510742-27.133728,0-37.4848633Z" fill="#fff"/>
  </g>
  <g id="Pen_Part_orange">
    <path d="M650.5504935,77.5071013l297.5238412,297.5238412c21.1814663,21.1814663,14.0452539,57.0887335-13.6258638,68.5612344l-131.356731,54.460764c-15.711778,6.5141347-33.8006658,2.919148-45.8275922-9.1077784l-220.6278743-220.6278743c-12.0269264-12.0269264-15.621913-30.1158142-9.1077784-45.8275922l54.460764-131.356731c11.4725009-27.6711177,47.3797681-34.8073301,68.5612344-13.6258638Z" fill="#fff" stroke="#fff" stroke-miterlimit="10" stroke-width="31.9046276"/>
  </g>
</svg>